<svg width="61" height="61" viewBox="0 0 61 61" fill="none" xmlns="http://www.w3.org/2000/svg">
<g clip-path="url(#clip0_2532_15757)">
<path d="M8.81641 -0.00109375C8.89425 0.0799219 9.26914 0.154583 9.41529 0.26737L43.0479 26.4259H53.7229C55.4862 26.4259 56.865 27.6364 56.9349 29.4393V48.7941L60.0755 48.8068C60.4535 48.8084 60.784 49.1929 61 49.4613V52.4208C60.6267 53.5296 59.9516 54.47 58.7141 54.7877L57.448 58.6383C57.0477 59.8536 56.2296 60.6319 55.043 60.9973H5.95703C4.77198 60.6272 3.9507 59.8536 3.55198 58.6383L2.28432 54.7893C1.05161 54.47 0.37013 53.5296 0 52.4192V49.4407C0.322474 48.9895 0.718021 48.7878 1.30578 48.7894L4.0619 48.7957L4.07143 29.4282C4.07143 27.8095 5.41057 26.4418 7.03247 26.4402L26.4429 26.4179L20.7257 21.9097C19.3929 20.858 19.4088 18.947 20.3842 17.6667L20.9322 16.9486L18.9084 15.3871C18.1602 16.2402 16.9656 16.4371 16.0554 15.7271L6.16354 8.02104C4.4082 6.65331 4.21599 4.12594 5.51383 2.41984L6.50031 1.12201C6.91174 0.581901 7.37083 0.221302 7.98401 -0.00585938H8.818L8.81641 -0.00109375ZM17.3024 14.1274L19.7996 10.917L8.39068 2.04812L7.16273 3.6049C6.47807 4.47383 6.55273 5.76531 7.47409 6.48174L17.3008 14.1274H17.3024ZM22.1824 15.3522L23.4342 13.7604L21.4151 12.1751L20.1634 13.7652L22.1824 15.3522ZM33.5929 29.3917L35.1719 30.5736C37.6723 32.4449 41.148 31.4314 42.6571 28.6943L25.0513 15.0043L21.9123 19.0392C21.5613 19.4903 21.6931 20.0987 22.1173 20.4434L29.8042 26.4211L31.5754 26.4449C33.2164 26.4672 33.6723 27.9874 33.5929 29.3917ZM44.7286 28.4751C44.7953 29.3663 44.422 29.7729 44.0455 30.3194C41.6547 33.784 37.0083 34.6069 33.5738 31.962L33.5405 35.5997C33.5341 36.2256 32.9908 36.6243 32.465 36.5862C31.9011 36.5433 31.5198 36.1128 31.5183 35.5012V28.4687H7.16432C6.51461 28.4926 6.09523 28.9104 6.09523 29.5633L6.10318 48.8037H54.8921V29.3409C54.8921 28.8961 54.3488 28.4783 53.9675 28.4783H44.7254L44.7286 28.4751ZM58.0088 52.8656C59.0143 52.8656 59.0779 51.5407 58.9238 50.8338H2.07622C2.0381 51.2834 2.02539 51.6535 2.06987 52.0634C2.11435 52.4732 2.55279 52.8656 3.02935 52.8656H58.0104H58.0088ZM54.4647 58.9656C54.9969 58.8877 55.294 58.6463 55.4179 58.2666L56.5076 54.9005H4.49557L5.61708 58.3508C5.7394 58.7241 6.14448 58.9322 6.57974 58.9656H54.4647Z" fill="#717171"/>
<path d="M27.4525 32.5321H15.2541C14.6409 32.5321 14.239 32.0317 14.2422 31.5139C14.2454 30.996 14.6425 30.502 15.2541 30.502H27.3953C27.9879 30.502 28.3993 30.907 28.4501 31.4122C28.501 31.9173 28.1483 32.5321 27.4541 32.5321H27.4525Z" fill="#717171"/>
<path d="M11.1493 32.5298H9.16842C8.56318 32.5298 8.13904 32.0501 8.14063 31.5115C8.14222 30.973 8.56477 30.4965 9.16842 30.4981L11.2033 30.5044C11.8006 30.506 12.1866 31.008 12.1866 31.5115C12.1866 32.0151 11.807 32.5298 11.1493 32.5298Z" fill="#717171"/>
</g>
<defs>
<clipPath id="clip0_2532_15757">
<rect width="61" height="61" fill="white"/>
</clipPath>
</defs>
</svg>
