<svg width="45" height="45" viewBox="0 0 45 45" fill="none" xmlns="http://www.w3.org/2000/svg">
<path d="M7.46618 15.6606L7.46266 39.1555L9.60485 39.1637C10.0056 39.1649 10.2892 39.493 10.3045 39.8305C10.322 40.2055 10.0431 40.5829 9.59547 40.584H1.05954C0.642349 40.584 0.369302 40.2465 0.34938 39.9149C0.325943 39.5305 0.618911 39.1661 1.05133 39.1649L3.19235 39.1543V14.7067L1.29508 15.6243C0.927114 15.8024 0.495864 15.5153 0.388052 15.2235C0.250943 14.8532 0.388052 14.4641 0.756021 14.2836L3.03063 13.161L22.1029 3.63129C22.3021 3.53168 22.5822 3.55278 22.7838 3.65356L41.808 13.1598L44.1388 14.3164C44.4658 14.4793 44.5619 14.9141 44.4482 15.2164C44.3369 15.5129 43.9056 15.8 43.5447 15.6243L41.6509 14.702L41.6416 26.443L39.3927 24.2129L37.3748 24.2V15.6582L7.46618 15.6606ZM26.6931 12.8094V9.96176H18.1478V12.8106L26.6931 12.8094Z" fill="white"/>
<path d="M34.5238 30.6137H10.2109L10.2133 22.0719C10.2133 21.2656 10.8461 20.6668 11.6406 20.6445H33.0918C33.9086 20.6691 34.4992 21.2633 34.5238 22.073V30.6148V30.6137Z" fill="white"/>
<path d="M35.9477 37.7336L20.8949 37.7383C20.8773 35.7461 19.2977 34.2004 17.3781 34.1805C15.4211 34.1594 13.7934 35.7145 13.7758 37.7348L11.6207 37.7383C10.9293 37.7184 10.2227 37.1594 10.2215 36.4L10.2109 31.327H35.2363V25.6328H36.6613V32.0406H44.4953V36.2254C44.5223 37.0551 43.8988 37.7207 43.0703 37.7359C43.0504 35.752 41.4777 34.1992 39.5547 34.1805C37.6387 34.1617 35.9922 35.6395 35.9465 37.7324L35.9477 37.7336Z" fill="white"/>
<path d="M16.7994 34.9465C18.4096 34.6359 19.844 35.7035 20.1334 37.2106C20.4276 38.7469 19.4104 40.2398 17.8623 40.5328C16.3623 40.8164 14.8834 39.8484 14.5576 38.3438C14.2283 36.8274 15.167 35.2606 16.7994 34.9453V34.9465Z" fill="white"/>
<path d="M38.9713 34.9465C40.5815 34.6359 42.0158 35.7035 42.3053 37.2106C42.5994 38.7469 41.5823 40.2398 40.0342 40.5328C38.5342 40.8164 37.0553 39.8484 36.7295 38.3438C36.4002 36.8274 37.3389 35.2606 38.9713 34.9453V34.9465Z" fill="white"/>
<path d="M44.4824 31.3145L37.375 31.332L37.3762 25.6309L38.8152 25.6344L44.4824 31.3145Z" fill="white"/>
</svg>
