<svg width="39" height="39" viewBox="0 0 39 39" fill="none" xmlns="http://www.w3.org/2000/svg">
<path d="M38.3613 37.7804H6.11719V34.4268C6.11719 33.398 6.31016 32.4362 6.52445 31.4409C6.86672 30.1957 7.27398 29.0237 7.81328 27.8578C8.38711 26.6177 9.37633 25.7564 10.6408 25.2385C13.0539 24.2482 15.4447 23.3667 17.9411 22.4902C15.9972 20.4813 15.0263 17.6578 14.9724 14.9695C14.748 13.7304 13.7953 13.3953 13.2956 12.1532L12.3978 9.92284C11.8971 8.6787 11.7559 7.34925 11.953 6.02284C12.3775 3.17198 14.8952 1.86792 17.5745 1.87097C20.3786 1.08284 24.2136 0.64714 26.5871 2.75862C27.0289 2.65909 27.424 2.4905 27.813 2.30769C28.7727 1.85675 29.7833 2.23862 30.3998 3.04503C30.9441 3.75597 31.3311 4.52988 31.263 5.43175C31.8084 6.44128 31.9354 7.54628 31.8541 8.68581C31.7191 10.3088 30.7329 12.7118 29.6147 13.962C32.4564 17.0637 32.9937 20.8814 33.0983 24.9307L34.1281 25.3746C35.2585 25.8621 36.1472 26.7396 36.6692 27.8568C37.1984 28.9892 37.5843 30.1175 37.9296 31.32C38.1622 32.355 38.3714 33.3564 38.3694 34.4278L38.3623 37.7804H38.3613ZM13.1006 6.78558C14.2666 6.41589 15.4112 6.20464 16.6248 6.12644C18.1808 6.02589 19.6484 5.79738 21.1291 5.2855C22.6323 4.79089 24.0237 4.17745 25.4831 3.40862C24.0988 2.32698 21.7538 2.30464 20.1805 2.5362L21.1027 2.97495L20.5198 3.99058C18.452 3.1273 17.3663 2.70277 15.2954 3.48073C13.907 4.00277 13.1047 5.28652 13.1006 6.78558ZM30.5023 9.55417C30.7552 8.57409 30.7918 7.58081 30.4607 6.5662C28.8184 8.31917 27.1284 9.86191 25.1663 11.2909C26.2195 12.1562 27.4372 12.7046 28.6966 13.1444C29.4583 12.5838 30.2799 10.4134 30.5023 9.55417ZM19.7042 22.4465C21.1799 23.4571 22.9695 23.518 24.5112 22.6618C27.3133 21.1039 28.5503 17.342 28.3137 14.286C26.6765 13.6685 25.4831 13.1221 24.1537 12.0059C21.9345 13.4623 18.7993 15.2742 16.182 15.5768C16.3811 18.1088 17.4973 20.9353 19.7042 22.4475V22.4465ZM27.6454 28.2518L26.4876 28.0578C26.7496 26.2409 26.7395 24.5509 26.4429 22.739L25.8183 23.2275C25.9097 24.8982 25.8213 26.4704 25.6111 28.1168L24.9946 32.3367L33.3684 32.1681C32.3284 29.9286 31.9171 27.6303 31.908 25.2141C31.9019 23.5414 31.7739 21.9621 31.4733 20.331C31.1127 18.6857 30.5613 17.1389 29.5243 15.7454C29.3963 16.8494 29.2196 17.8488 28.8845 18.8583C29.6543 20.0486 30.093 21.3293 30.2921 22.7177C30.5084 24.2564 30.414 25.7625 30.1113 27.2839C29.9184 28.2559 29.9194 29.176 30.1875 30.15L29.0673 30.4893C28.7006 29.3375 28.7281 28.1696 28.9606 26.9833C29.3963 24.7601 29.3709 22.3602 28.3167 20.2457L27.4636 21.5812C27.8617 23.7729 28.0344 25.991 27.6454 28.2518ZM22.3885 30.0007C23.3138 28.0203 23.914 26.1241 24.3233 24.0532C22.4698 24.7672 20.5848 24.493 18.9374 23.3321C18.6937 24.6128 19.0512 25.8123 19.625 26.9234C20.3268 28.1381 21.2642 29.1893 22.3885 30.0007ZM21.7101 33.4803C20.7828 34.7478 19.7093 35.7085 18.39 36.5881L37.176 36.5911C37.2877 33.206 36.9932 31.7039 35.7531 28.6906C35.2707 27.5185 34.4023 26.6309 33.145 26.2683C33.274 28.3615 33.6823 30.4283 34.7436 32.2128L35.3977 33.3127L23.6286 33.5534L24.306 28.6926C23.5788 30.3918 22.8628 31.9954 21.7101 33.4813V33.4803Z" fill="#013049"/>
<path d="M23.9972 20.8558C22.9257 21.7576 21.4642 21.843 20.406 20.9126C19.826 21.067 19.2685 21.1107 18.7302 20.8862C18.3656 20.7339 18.1056 20.3987 18.1868 20.0199C18.7505 20.6232 20.3917 19.5344 20.9869 19.1678C21.4043 18.9098 21.7913 18.9342 22.2432 18.9342C22.6952 18.9342 23.077 18.9109 23.4914 19.1648C24.1008 19.5375 25.7238 20.6232 26.2945 20.0209C26.3717 20.3744 26.1452 20.7065 25.8081 20.8588C25.2474 21.1117 24.6492 21.1076 23.9972 20.8568V20.8558ZM22.7368 20.2393L22.2422 19.6705L21.6714 20.3104C22.0736 20.4353 22.4372 20.4038 22.7358 20.2393H22.7368Z" fill="#013049"/>
<path d="M21.3315 16.4844C20.455 15.9654 19.4729 16.0792 18.8249 16.909L17.8672 16.2458C18.7741 14.9051 20.6297 14.5771 21.9866 15.5247L21.3315 16.4844Z" fill="#013049"/>
<path d="M25.6452 16.9135C25.0044 16.1346 24.0162 15.9192 23.1356 16.489L22.4531 15.5252C23.8059 14.5878 25.6148 14.8853 26.5857 16.2249L25.6452 16.9125V16.9135Z" fill="#013049"/>
<path d="M21.2737 17.1513C20.4124 17.7729 20.058 17.8389 19.0078 17.521C19.2059 17.1198 19.4984 16.7918 19.9026 16.6466C20.4205 16.4587 20.9466 16.6973 21.2737 17.1513Z" fill="#013049"/>
<path d="M25.4388 17.5141C24.4292 17.8391 24.0108 17.7802 23.1719 17.1455C23.4888 16.7087 23.9976 16.468 24.5064 16.6356C24.9167 16.7697 25.2052 17.0845 25.4398 17.5141H25.4388Z" fill="#013049"/>
<path d="M19.1398 8.70039C17.9982 9.45703 16.7459 9.83891 15.3799 10.0126L15.2266 8.83953C16.426 8.68719 17.4711 8.35609 18.4898 7.73047L19.1408 8.70039H19.1398Z" fill="#013049"/>
<path d="M20.649 9.28742L20.6094 8.11437C21.4676 7.95898 22.1155 7.48672 22.6163 6.76562L23.6573 7.29984C23.0195 8.35305 21.9957 9.13406 20.649 9.28844V9.28742Z" fill="#013049"/>
<path d="M26.204 7.21602L25.9531 6.07547C26.6458 5.88148 27.1252 5.48437 27.5314 4.84961L28.5846 5.38789C28.0311 6.32531 27.246 6.99258 26.204 7.21602Z" fill="#013049"/>
<path d="M17.2448 5.23427C16.7066 5.18958 16.3399 5.29216 15.9073 5.57451L15.1953 4.64622C15.8788 4.1374 16.6385 3.91294 17.4774 4.09677L17.2448 5.23427Z" fill="#013049"/>
<path d="M27.5019 11.6159L27.3516 10.4611C28.293 10.325 28.9867 9.76844 29.2416 8.80664L30.4086 9.01992C30.0846 10.393 29.0375 11.4554 27.5019 11.6159Z" fill="#013049"/>
<path d="M6.11101 3.4043C7.40898 4.24117 8.07624 5.77273 7.87414 7.36625C8.64195 7.03719 9.39148 6.92648 10.1684 7.03922C10.3848 7.0707 10.5462 7.22711 10.5818 7.4475C10.7392 8.52203 10.463 9.56813 9.8282 10.4619C10.1217 10.4883 10.4812 10.5025 10.5452 10.7909C10.788 11.8909 10.4721 13.006 9.83124 13.918L10.1999 13.983C10.3858 14.0155 10.5473 14.178 10.5757 14.3741C10.7321 15.4476 10.467 16.4927 9.83124 17.3783L10.1522 17.4372C10.3939 17.4605 10.5493 17.6373 10.5808 17.8709C10.919 20.351 8.96898 22.5377 6.46851 22.5052L6.46445 27.4827C6.46445 27.7722 6.18718 27.9499 5.94749 27.9306C5.7271 27.9134 5.50773 27.7346 5.50773 27.4645L5.50265 22.5052C2.93718 22.5336 0.968901 20.2393 1.42492 17.7378C1.47976 17.4392 1.85656 17.4321 2.14703 17.3895C1.51328 16.4988 1.24617 15.4659 1.3914 14.4127C1.42593 14.1618 1.58437 14.0115 1.82812 13.9709L2.14804 13.918C1.50312 13.002 1.19132 11.8888 1.43406 10.7909C1.49804 10.5015 1.86164 10.4862 2.15109 10.4639C1.5214 9.57625 1.24413 8.54945 1.38937 7.49117C1.41171 7.27383 1.55187 7.08492 1.77124 7.04836C2.56038 6.91836 3.32515 7.0382 4.09906 7.36219C3.89289 5.76867 4.56929 4.22898 5.86828 3.4043H6.10898H6.11101ZM5.99218 9.02273C7.28812 7.75523 7.24851 5.72195 5.9871 4.51945C4.69726 5.75039 4.71249 7.81922 5.99218 9.02273ZM5.51179 11.1322C5.50976 9.28781 4.0432 7.92586 2.31867 7.95836C2.27601 9.73773 3.76289 11.2094 5.51179 11.1322ZM9.65859 7.95633C7.85788 7.93195 6.43195 9.39344 6.47765 11.1474C8.2621 11.1728 9.70429 9.72555 9.65859 7.95633ZM5.51078 14.5934C5.51078 12.7491 4.0432 11.3891 2.31765 11.4196C2.27703 13.199 3.76187 14.6727 5.51078 14.5934ZM9.65859 11.4176C7.8589 11.3952 6.42992 12.8547 6.47765 14.6097C8.26007 14.632 9.70531 13.1878 9.65859 11.4176ZM5.50773 18.074C5.52703 16.256 4.06249 14.8575 2.31765 14.893C2.27906 16.6541 3.72429 18.1268 5.50773 18.074ZM9.65453 14.891C7.84874 14.8666 6.42281 16.3363 6.47359 18.0821C8.26007 18.1095 9.69617 16.6592 9.65453 14.891ZM5.50773 21.5352C5.52703 19.7183 4.06148 18.3208 2.31765 18.3543C2.27906 20.1154 3.72328 21.5911 5.50773 21.5352ZM9.65453 18.3512C7.84874 18.3289 6.42281 19.7965 6.47359 21.5413C8.2621 21.5728 9.69515 20.1195 9.65453 18.3512Z" fill="#013049"/>
</svg>
