<svg width="62" height="62" viewBox="0 0 62 62" fill="none" xmlns="http://www.w3.org/2000/svg">
<g clip-path="url(#clip0_2532_15706)">
<path d="M55.7923 52.5126C55.426 51.9623 55.3695 51.3991 55.6132 50.7407C58.7747 42.1825 58.702 32.7884 55.4098 24.2707C56.4733 23.5912 57.1802 22.5035 57.3125 21.3335C57.4562 20.0682 57.0269 18.9014 56.0715 17.9525C57.3497 16.7341 57.6999 14.9524 56.9591 13.3692C56.3168 11.9975 54.9031 11.1099 53.3554 11.1099C53.215 11.1099 53.073 11.1163 52.9342 11.1309C52.8906 11.1357 52.8487 11.1373 52.81 11.1373C52.5469 11.1373 52.3887 11.0453 52.1628 10.7581C51.5463 9.97375 50.967 9.56223 50.3537 9.12649C49.5565 8.56004 48.7334 7.97422 47.7086 6.47659C46.048 4.04778 44.9603 3.79118 42.4395 3.3974C42.3653 3.38611 42.291 3.37965 42.2184 3.37965C41.6423 3.37965 41.192 3.74761 41.1242 4.27533C40.9919 5.2872 41.8246 5.41308 42.7058 5.54702C43.2077 5.62287 43.7774 5.71002 44.2986 5.95209C45.0345 6.29423 45.7123 7.23509 46.3127 8.06621C46.7242 8.6375 47.1131 9.17652 47.4875 9.48154L49.4839 11.1083L12.4933 11.1034C13.9942 9.99312 15.2158 8.88442 16.2261 7.30771C16.6634 6.62667 17.3074 6.06668 17.9093 5.84881C18.6146 5.59221 19.2327 5.52282 19.8879 5.45019C21.0627 5.31947 22.2796 5.1823 24.1629 3.99129C25.341 3.2457 26.0075 2.99395 26.8047 2.99395C27.3615 2.99395 27.9844 3.12144 28.7494 3.31187C29.5369 3.50876 30.2664 3.60397 30.9781 3.60397C31.9415 3.60397 32.7243 3.42323 33.415 3.26507C34.0121 3.1279 34.5769 2.99717 35.1789 2.99717C35.2935 2.99717 35.408 3.00202 35.521 3.0117C36.194 3.06818 36.7604 3.38772 37.2607 3.67176C37.6884 3.91383 38.058 4.12363 38.4162 4.12363C38.6954 4.12363 38.9294 3.99775 39.1344 3.73954C39.3603 3.45227 39.4329 3.16017 39.3506 2.8713C39.1086 2.02404 37.5932 1.48018 36.591 1.12029C36.3763 1.04283 36.1908 0.976662 36.0762 0.926634L36.0455 0.912109H34.3558L34.3365 0.916951C32.7162 1.33332 31.8496 1.51891 30.9878 1.51891C30.126 1.51891 29.2578 1.33332 27.6391 0.916951L27.6197 0.912109H25.9365L25.9123 0.920178C25.0925 1.19614 24.0209 1.59637 22.9977 2.26288C21.6292 3.15533 20.4382 3.30542 19.2859 3.45066C17.6333 3.65884 16.0712 3.85735 14.4138 6.27809C13.2679 7.95001 12.5401 8.46482 11.7687 9.01191C11.1329 9.46217 10.476 9.92695 9.57228 11.055C9.41574 11.0905 9.17044 11.1244 8.9913 11.1244C8.96548 11.1244 8.94127 11.1244 8.91868 11.1228C8.81862 11.1163 8.72018 11.1131 8.62173 11.1131C7.03695 11.1131 5.6071 12.0314 4.9761 13.4532C4.28699 15.0073 4.65333 16.7599 5.90405 17.967C4.95189 18.8805 4.52261 20.0408 4.65979 21.3319C4.78405 22.5003 5.49252 23.588 6.5641 24.2674C3.25898 32.8143 3.19604 42.2422 6.38981 50.831C6.60606 51.4104 6.53505 51.9769 6.1784 52.5159L4.98255 54.325C4.15627 55.5741 4.13045 57.1702 4.91154 58.7033C5.50382 59.8636 6.68837 60.7222 8.16341 61.0579L8.18116 61.0611H43.8726L43.9129 61.0353C44.4035 60.7238 44.6472 60.3074 44.5811 59.8911C44.4907 59.323 44.0727 58.9841 43.4643 58.9841H8.92675C8.00525 58.9841 7.19672 58.5209 6.76422 57.7447C6.29782 56.9071 6.35431 55.9517 6.92076 55.1206L7.91004 53.6681C8.63626 52.582 8.78634 51.312 8.33124 50.0903C5.27143 41.8711 5.36664 32.8966 8.59591 24.8081H53.3909C56.5782 32.9111 56.6799 41.8533 53.6734 50.0048C53.1989 51.2926 53.3183 52.5336 54.0219 53.5939L55.1016 55.1997C55.639 55.9985 55.6648 56.9765 55.1726 57.8141C54.7482 58.5371 53.9429 58.9857 53.0714 58.9857L47.8103 58.9825C47.1454 58.9825 46.7032 59.3246 46.6258 59.8959C46.5709 60.2945 46.8114 60.719 47.2697 61.032L47.31 61.0595H53.7912L53.8089 61.0546C55.2807 60.719 56.4653 59.862 57.0592 58.7017C57.8467 57.1637 57.8096 55.545 56.9559 54.262L55.7923 52.511V52.5126ZM7.24352 19.5599C7.60664 19.1952 8.11499 18.9934 8.67176 18.9934H18.1336C18.7582 18.9934 19.1439 18.4544 19.1439 17.9557C19.1439 17.4587 18.755 16.9229 18.1256 16.9229L8.55234 16.9148C8.06012 16.9148 7.59857 16.7228 7.25482 16.3742C6.90462 16.0192 6.70773 15.5334 6.71258 15.0396C6.72387 14.0019 7.54531 13.1901 8.583 13.1901H53.3909C54.4335 13.1901 55.2533 14.0035 55.2597 15.0412C55.263 15.5431 55.0629 16.0321 54.7127 16.3839C54.3705 16.7276 53.9057 16.9181 53.4071 16.9181H22.2441C21.9407 16.9197 21.676 17.0246 21.4791 17.2215C21.2887 17.4119 21.1789 17.6798 21.1805 17.9557C21.1805 18.4722 21.5469 18.9934 22.2441 18.9934H53.2876C54.3915 18.9934 55.2016 19.7277 55.2581 20.7783C55.2856 21.2818 55.0871 21.8096 54.7272 22.1888C54.4916 22.4373 54.0784 22.7343 53.4523 22.7343L8.57816 22.7375C7.43073 22.7375 6.71742 21.7724 6.71419 20.8784C6.71258 20.3716 6.90139 19.9036 7.24352 19.5583V19.5599Z" fill="#013049"/>
<path d="M40.2295 35.5893C40.449 35.9056 40.7621 36.0799 41.109 36.0799C41.2979 36.0799 41.4931 36.0251 41.6707 35.9234C41.8885 35.7975 42.0644 35.5458 42.129 35.2666C42.1919 34.9971 42.1484 34.734 42.0079 34.5258C39.5307 30.856 35.4074 28.666 30.9742 28.666C28.6616 28.666 26.378 29.276 24.3704 30.4315C21.4768 32.097 19.324 34.7614 18.3105 37.9375C17.2938 41.1215 17.5117 44.5445 18.9238 47.5752C21.104 52.2537 25.8422 55.2764 30.9936 55.2764C32.5622 55.2764 34.1083 54.9988 35.5898 54.4501C38.7077 53.2946 41.2688 51.0321 42.8003 48.0755C44.3415 45.0996 44.6998 41.6783 43.8074 38.4426C43.6718 37.952 43.2183 37.7325 42.8278 37.7325C42.71 37.7325 42.5954 37.7519 42.4873 37.789C41.9773 37.9649 41.6884 38.5168 41.8288 39.0462C42.6874 42.2851 42.0806 45.7064 40.1617 48.4306C38.2768 51.1079 35.3251 52.8218 32.0442 53.151L32.0232 50.7077C33.7936 50.5753 35.033 50.1154 36.0239 49.2278C37.8217 47.6172 38.2671 44.9737 37.11 42.7967C36.9664 42.5272 36.6129 42.361 36.0303 42.2899C35.8367 42.2674 35.6414 42.2544 35.4477 42.2544C33.7855 42.2544 32.1684 43.1259 30.9855 44.651C29.8058 43.1259 28.1887 42.2544 26.52 42.2544C26.328 42.2544 26.1327 42.2657 25.9407 42.2883C25.3581 42.3577 25.0047 42.524 24.861 42.7935C23.7023 44.9689 24.1477 47.6156 25.9471 49.2262C26.9316 50.1089 28.1694 50.5673 29.9478 50.7061L29.9268 53.1429C27.4625 52.9154 25.1983 51.9019 23.3682 50.2074C21.5608 48.5338 20.3375 46.2955 19.9259 43.9086C19.0287 38.7089 21.7883 33.656 26.6362 31.6193C28.0306 31.0335 29.4959 30.7366 30.992 30.7366C34.6634 30.7366 38.117 32.5505 40.2311 35.5877L40.2295 35.5893ZM29.943 48.5919C28.9037 48.5919 28.029 48.2869 27.3415 47.6866C26.4313 46.8926 26.0875 45.5886 26.4506 44.3395C27.7449 44.346 28.9053 45.0932 29.5605 46.339C29.8591 47.1024 29.9736 47.7657 29.943 48.5903V48.5919ZM34.6554 47.664C33.9953 48.2627 33.14 48.571 32.0426 48.6032C31.9296 47.4461 32.2685 46.3277 32.9834 45.5128C33.6273 44.7785 34.5262 44.3669 35.5187 44.3444C35.8802 45.5854 35.5543 46.849 34.6554 47.664Z" fill="#013049"/>
<path d="M30.9875 32.7969C30.7696 32.7969 30.5518 32.8517 30.3581 32.9583C28.5942 33.9136 27.4984 35.734 27.5 37.7061C27.5 39.6766 28.5958 41.497 30.3581 42.454C30.5211 42.5428 30.7083 42.588 30.9116 42.588C31.5055 42.588 32.2172 42.2103 32.8644 41.5503C33.8988 40.4948 34.5008 39.015 34.4717 37.5932C34.433 35.6663 33.3388 33.8894 31.6153 32.9583C31.4216 32.8534 31.2054 32.7985 30.9875 32.7985V32.7969ZM31.002 40.398C30.1128 39.8009 29.5835 38.8035 29.5802 37.7045C29.5786 36.6265 30.1015 35.6291 30.9875 35.0143C31.838 35.6033 32.3609 36.5603 32.3915 37.598C32.4254 38.7132 31.9316 39.7024 31.0004 40.3964L31.002 40.398Z" fill="#013049"/>
<path d="M26.85 4.54102C26.7289 4.54102 26.6079 4.562 26.4885 4.60557C26.2061 4.70724 25.9914 4.91058 25.8817 5.17686C25.7703 5.4496 25.78 5.75784 25.9091 6.02251C26.0786 6.37432 26.4465 6.60026 26.8468 6.60026C26.9629 6.60026 27.0775 6.58089 27.1857 6.54216C27.7182 6.35173 27.9974 5.75784 27.8054 5.21882C27.6617 4.81375 27.2776 4.54102 26.85 4.54102Z" fill="#013049"/>
<path d="M35.1469 4.54102C35.0258 4.54102 34.9048 4.562 34.7854 4.60557C34.5029 4.70724 34.2883 4.91058 34.1786 5.17686C34.0672 5.4496 34.0769 5.75784 34.206 6.02251C34.3754 6.37432 34.745 6.60026 35.1436 6.60026C35.2598 6.60026 35.3744 6.58089 35.4841 6.54216C36.0167 6.35173 36.2959 5.75784 36.1039 5.21882C35.9602 4.81375 35.5745 4.54102 35.1469 4.54102Z" fill="#013049"/>
<path d="M19.0219 6.99609C18.9008 6.99609 18.7798 7.01707 18.6604 7.06065C18.3779 7.16232 18.1633 7.36566 18.0536 7.63194C17.9422 7.90468 17.9519 8.21131 18.081 8.47759C18.2504 8.8294 18.6184 9.05534 19.0186 9.05534C19.1348 9.05534 19.2494 9.03597 19.3575 8.99724C19.8901 8.80681 20.1693 8.21292 19.9772 7.6739C19.8336 7.26883 19.4495 6.99609 19.0219 6.99609Z" fill="#013049"/>
<path d="M42.9734 9.05534C43.0896 9.05534 43.2041 9.03597 43.3123 8.99724C43.8448 8.80681 44.124 8.21292 43.932 7.6739C43.7883 7.26883 43.4026 6.99609 42.975 6.99609C42.8539 6.99609 42.7329 7.01707 42.6135 7.06065C42.3311 7.16232 42.1164 7.36566 42.0067 7.63194C41.8953 7.90468 41.905 8.21292 42.0341 8.47759C42.2036 8.8294 42.5731 9.05534 42.9717 9.05534H42.9734Z" fill="#013049"/>
<path d="M24.1625 7.58008C24.0414 7.58008 23.9204 7.60267 23.801 7.64463C23.5186 7.7463 23.3039 7.94803 23.1942 8.21593C23.0828 8.48866 23.0925 8.7969 23.2216 9.06157C23.3911 9.41339 23.759 9.63932 24.1592 9.63932C24.2754 9.63932 24.39 9.61996 24.4998 9.58122C25.0323 9.39079 25.3099 8.7969 25.1195 8.25789C24.9758 7.85281 24.5918 7.58008 24.1641 7.58008H24.1625Z" fill="#013049"/>
<path d="M37.8344 7.58008C37.7133 7.58008 37.5923 7.60106 37.4729 7.64463C37.1904 7.7463 36.9758 7.94964 36.8661 8.21593C36.7547 8.48866 36.7644 8.7969 36.8935 9.06157C37.0629 9.41339 37.4309 9.63932 37.8311 9.63932C37.9473 9.63932 38.0619 9.61996 38.1716 9.58122C38.7042 9.39079 38.9834 8.7969 38.7914 8.25789C38.6477 7.85281 38.2636 7.58008 37.836 7.58008H37.8344Z" fill="#013049"/>
<path d="M30.9989 6.4082C30.8553 6.4082 30.7133 6.43887 30.5761 6.49858C30.3147 6.61155 30.1178 6.8165 30.0242 7.07471C29.9241 7.34745 29.9435 7.65569 30.0774 7.92197C30.2437 8.25442 30.6035 8.47068 30.9957 8.47068C31.1377 8.47068 31.2749 8.44163 31.4056 8.38676C31.9027 8.17212 32.1399 7.59275 31.9462 7.06503C31.8026 6.67287 31.4234 6.4082 31.0005 6.4082H30.9989Z" fill="#013049"/>
</g>
<defs>
<clipPath id="clip0_2532_15706">
<rect width="61.971" height="61.971" fill="white"/>
</clipPath>
</defs>
</svg>
