<svg width="62" height="62" viewBox="0 0 62 62" fill="none" xmlns="http://www.w3.org/2000/svg">
<g clip-path="url(#clip0_2532_15694)">
<path d="M61.971 31.8481V33.8912C61.8935 34.0123 61.8838 34.2366 61.8596 34.5142C60.8252 46.2693 52.3058 55.5407 41.0751 58.7587C36.0658 60.1934 30.8677 60.521 25.7147 59.7415C16.8322 58.3988 8.77438 53.3879 4.00875 45.748C1.86559 42.3122 0.526108 38.5407 0.114582 34.5093C0.0887605 34.2511 0.0726223 34.0091 0 33.8912V31.8336L6.06154 23.729C3.828 23.566 2.37233 21.8973 2.44172 19.9074C2.51112 17.9176 4.17013 16.3844 6.20194 16.3909C6.77324 13.7717 8.84055 11.94 11.4227 11.5752C12.491 9.18354 14.8214 7.73755 17.4955 7.91669C18.53 5.70251 20.607 4.28396 23.0955 4.24523C24.9901 1.78575 28.2936 1.11279 30.9871 2.63786C33.6806 1.11279 36.9857 1.78737 38.8803 4.24361C41.3689 4.28557 43.4442 5.7009 44.4771 7.91669C47.1528 7.73594 49.48 9.18354 50.5499 11.5768C53.174 11.9383 55.2026 13.8168 55.782 16.4022C57.8961 16.3796 59.5196 18.0031 59.5325 20.0172C59.5454 22.0312 58.1043 23.5708 55.9143 23.7241L61.9726 31.8481H61.971ZM49.6204 13.9556C49.1056 13.9621 48.6424 13.5764 48.5133 13.0922C47.9743 11.0862 45.9973 9.92267 43.9865 10.4536C43.3184 10.6295 42.6309 10.2648 42.4679 9.58054C42.0192 7.68914 40.3199 6.46908 38.3575 6.7047C37.925 6.75634 37.4295 6.49329 37.2197 6.13018C36.0691 4.12903 33.5095 3.64488 31.7101 5.06344C31.2502 5.42655 30.6321 5.362 30.1867 5.01825C28.3937 3.64166 25.8745 4.16776 24.7481 6.12695C24.5366 6.4949 24.046 6.75473 23.6103 6.70309C21.6511 6.4707 19.9453 7.68914 19.4999 9.57893C19.3385 10.2616 18.651 10.6295 17.9829 10.452C15.9737 9.91945 13.9903 11.0895 13.4577 13.0858C13.3044 13.6587 12.8025 13.9685 12.2264 13.9653C10.6787 13.9556 9.25369 14.8545 8.72274 16.4054H53.2434C52.6947 14.7997 51.2213 13.933 49.6171 13.954L49.6204 13.9556ZM55.8239 18.8294H6.07929C5.29497 18.8294 4.83019 19.4733 4.86731 20.1285C4.89958 20.6966 5.35791 21.2711 6.08736 21.2711H55.8853C56.6502 21.2711 57.1263 20.6369 57.1053 20.0269C57.0843 19.4168 56.6647 18.8294 55.8239 18.8294ZM41.3947 29.7728C46.6429 29.7857 47.0302 32.2048 51.5634 32.2096C53.0853 32.2113 54.5312 31.9756 55.8836 31.2881L57.8832 30.3973L52.8383 23.6951H9.13265L4.09105 30.3973L6.19226 31.3349C7.47848 31.9756 8.84862 32.2016 10.2882 32.2096C15.0183 32.2371 15.3459 29.7034 20.82 29.7744C26.1117 29.8422 26.3554 32.2242 30.9855 32.2129C35.6156 32.2016 35.9077 29.7598 41.3947 29.7744V29.7728ZM44.2221 45.6722C46.6073 47.1956 49.4784 47.1505 51.8103 45.6577C53.1547 44.7975 54.6297 44.4053 56.2387 44.3666C58.3141 40.7258 59.5035 36.7154 59.5325 32.4679C58.6223 32.7148 57.838 33.0343 57.052 33.4249C55.3543 34.2673 53.5872 34.6272 51.6845 34.632C46.3088 34.6449 46.057 32.2322 41.3979 32.1919C36.6597 32.1499 36.4209 34.6223 30.9887 34.6304C25.5985 34.6385 25.3549 32.1661 20.5795 32.1919C15.9591 32.2177 15.6654 34.6433 10.2914 34.6304C8.38706 34.6255 6.62154 34.2673 4.92379 33.4216C4.13947 33.0311 3.35192 32.7115 2.43849 32.4679C2.4853 36.78 3.88287 40.842 6.1035 44.3924C7.63179 44.4602 8.95029 44.8814 10.1655 45.6577C12.533 47.1714 15.4282 47.1763 17.7941 45.6464C20.5263 43.8808 24.5076 43.9406 27.2818 45.7061C29.5637 47.1585 32.4137 47.1585 34.7005 45.7029C37.465 43.9422 41.3995 43.8679 44.2237 45.6706L44.2221 45.6722ZM52.5462 48.0122C49.7366 49.6713 45.9312 49.6083 43.2506 47.888C40.9186 46.3903 38.0266 46.4097 35.7043 47.9041C32.9802 49.6567 29.0118 49.6438 26.2634 47.9154C23.9944 46.4129 21.1073 46.3952 18.8059 47.8412C15.5541 49.8843 11.7777 49.5664 8.41289 47.5136C16.5159 57.3256 30.2367 59.8949 41.8223 56.0104C46.759 54.3546 51.0777 51.3868 54.2892 47.2424C53.5968 47.357 53.103 47.6862 52.5462 48.0139V48.0122Z" fill="#717171"/>
<path d="M30.7818 38.3045C31.4483 38.1899 32.0164 38.6595 32.1439 39.1921C32.3133 39.9006 31.8615 40.5219 31.2627 40.6575C30.5623 40.8156 29.9346 40.3863 29.799 39.7295C29.6634 39.0727 30.0782 38.4255 30.7834 38.3045H30.7818Z" fill="#717171"/>
<path d="M36.1256 38.3045C36.7921 38.1899 37.3601 38.6595 37.4876 39.1921C37.6571 39.9006 37.2052 40.5219 36.6065 40.6575C35.9061 40.8156 35.2783 40.3863 35.1427 39.7295C35.0072 39.0727 35.4219 38.4255 36.1272 38.3045H36.1256Z" fill="#717171"/>
<path d="M7.86804 38.3241C8.57005 38.1595 9.16394 38.634 9.29789 39.1891C9.4625 39.8766 9.0542 40.5189 8.40544 40.6642C7.7825 40.803 7.16925 40.4624 6.97882 39.8282C6.79807 39.2295 7.12083 38.5 7.86804 38.3241Z" fill="#717171"/>
<path d="M25.0487 38.3148C25.7668 38.1728 26.3284 38.6908 26.4446 39.2234C26.5979 39.9254 26.1267 40.5274 25.5732 40.6565C24.8695 40.8195 24.2918 40.4112 24.1239 39.8496C23.9238 39.183 24.295 38.4649 25.0487 38.3148Z" fill="#717171"/>
<path d="M53.6149 38.3142C54.3363 38.1738 54.8866 38.6951 55.0044 39.226C55.1609 39.9296 54.68 40.5284 54.1362 40.6543C53.4261 40.8189 52.8515 40.4057 52.6853 39.8441C52.4868 39.1744 52.8628 38.4595 53.6149 38.3126V38.3142Z" fill="#717171"/>
<path d="M13.6787 38.3116C14.3952 38.2099 14.9439 38.7328 15.0279 39.2863C15.136 39.9996 14.6841 40.6064 13.9886 40.692C13.3866 40.7662 12.7911 40.3837 12.6604 39.714C12.5474 39.1298 12.9234 38.4181 13.6787 38.3116Z" fill="#717171"/>
<path d="M19.3588 38.3132C20.0866 38.1825 20.6273 38.707 20.7386 39.2573C20.8774 39.9496 20.3917 40.5354 19.8526 40.6581C19.1345 40.8211 18.5648 40.3918 18.4099 39.8415C18.2146 39.1524 18.5971 38.4504 19.3588 38.3132Z" fill="#717171"/>
<path d="M42.1237 38.3273C42.8225 38.1562 43.4277 38.6161 43.5649 39.1697C43.7376 39.8588 43.3567 40.5172 42.6612 40.6673C42.0802 40.7932 41.4427 40.4785 41.2458 39.8088C41.0844 39.2568 41.3814 38.508 42.1221 38.3273H42.1237Z" fill="#717171"/>
<path d="M47.9299 38.3114C48.6609 38.1871 49.1935 38.7116 49.3032 39.27C49.4372 39.9575 48.9466 40.5385 48.4172 40.6563C47.6862 40.8209 47.1246 40.3803 46.9712 39.8316C46.776 39.1377 47.173 38.4405 47.9315 38.3114H47.9299Z" fill="#717171"/>
</g>
<defs>
<clipPath id="clip0_2532_15694">
<rect width="61.971" height="61.971" fill="white"/>
</clipPath>
</defs>
</svg>
