<svg width="46" height="46" viewBox="0 0 46 46" fill="none" xmlns="http://www.w3.org/2000/svg">
<path d="M44.6526 43.5879L1.37183 43.5915C0.966934 43.5915 0.732142 43.3268 0.705788 43.0321C0.67584 42.7015 0.901049 42.4211 1.25084 42.3672L2.89798 42.3601L2.90397 38.0619H10.3418L10.3478 42.3565L11.5697 42.3601L11.5769 5.60917C11.5769 4.41724 12.5879 3.30078 13.7667 3.30078H32.2266C33.4724 3.30078 34.4236 4.47474 34.4236 5.70021L34.4259 42.3397L35.649 42.3613L35.655 38.0595L43.0965 38.0679L43.1001 42.3625L44.6597 42.3672C45.0131 42.3756 45.2851 42.62 45.2911 42.947C45.297 43.2321 45.1329 43.5903 44.6538 43.5903L44.6526 43.5879ZM23.7202 17.5117C25.0594 17.1523 25.8908 15.8178 25.6524 14.4749C25.42 13.168 24.2964 12.2396 22.914 12.2253C22.2084 12.2181 21.6645 11.7317 21.5543 11.0597C21.407 10.166 22.0035 9.3826 22.8972 9.31313C23.707 9.24964 24.4557 9.88453 24.4725 10.7806C24.4796 11.134 24.8055 11.3951 25.0942 11.3807C25.4524 11.3628 25.7075 11.0836 25.6931 10.7027C25.6452 9.47844 24.833 8.48417 23.6411 8.17031L23.6124 7.6576C23.5884 7.23474 23.3524 6.93885 22.9583 6.95802C22.6013 6.97599 22.3929 7.26828 22.3785 7.65401L22.3593 8.16552C21.5004 8.38234 20.8715 8.96693 20.5637 9.62818C20.1767 10.4607 20.233 11.3041 20.6283 12.0827C21.0572 12.9284 21.9556 13.4292 22.9152 13.4495C23.7729 13.4675 24.4353 14.0677 24.4653 14.881C24.4952 15.7004 23.8543 16.3724 23.0445 16.3952C22.2347 16.418 21.5495 15.7963 21.5244 14.9397C21.5136 14.5708 21.2201 14.312 20.8811 14.3252C20.6068 14.336 20.3061 14.5888 20.3061 14.9206C20.3085 16.1868 21.1327 17.2218 22.3533 17.5332L22.3785 18.0591C22.3989 18.4724 22.6372 18.7755 23.0374 18.7467C23.8939 18.6832 23.4375 17.6195 23.7202 17.5129V17.5117ZM30.9208 24.0475C31.3749 24.0475 31.5653 23.7013 31.5498 23.3946C31.533 23.0712 31.279 22.8256 30.8873 22.8256H15.0293C14.6352 22.8268 14.4255 23.1766 14.4447 23.4773C14.4651 23.8007 14.7154 24.0475 15.1095 24.0475H30.9208ZM30.9208 29.3375C31.3749 29.3375 31.5653 28.9937 31.5498 28.6846C31.5342 28.3756 31.279 28.1168 30.8873 28.1168H15.1083C14.6807 28.1168 14.4219 28.4007 14.4447 28.7721C14.4639 29.0883 14.7142 29.3387 15.1095 29.3387H30.9208V29.3375ZM27.139 42.3601V32.8558C27.1091 32.4892 26.8527 32.2628 26.4957 32.2472H19.5011C19.1441 32.264 18.8878 32.488 18.859 32.857V42.3648L27.139 42.3601Z" fill="white"/>
<path d="M10.3465 20.2613H2.90745L2.90625 17.161C2.90625 15.7918 4.0251 14.7305 5.38594 14.7305H9.70562C10.0698 14.7401 10.3489 14.9964 10.3489 15.369V20.2613H10.3465Z" fill="white"/>
<path d="M43.1001 20.264L35.661 20.2664L35.6562 15.3705C35.6562 14.998 35.9354 14.7356 36.2983 14.7344H40.6156C41.9944 14.726 43.0738 15.7946 43.1037 17.1602L43.0989 20.264H43.1001Z" fill="white"/>
<path d="M10.3477 25.7822L2.90745 25.7882L2.90625 21.4805L10.3429 21.4817L10.3477 25.7822Z" fill="white"/>
<path d="M43.0875 25.7862H35.652L35.6484 21.4857L43.0887 21.4785L43.0875 25.7862Z" fill="white"/>
<path d="M10.3495 31.3047L2.89844 31.3143L2.90802 27.0078L10.3447 27.009L10.3495 31.3047Z" fill="white"/>
<path d="M43.1013 31.3143L35.6574 31.3131L35.6562 27.009L43.0941 27.0078L43.1013 31.3143Z" fill="white"/>
<path d="M10.3501 32.5332H2.90625V36.8373H10.3501V32.5332Z" fill="white"/>
<path d="M43.1019 36.8318L35.664 36.8402L35.6484 32.5324L43.0935 32.5312L43.1019 36.8318Z" fill="white"/>
</svg>
