<svg width="61" height="61" viewBox="0 0 61 61" fill="none" xmlns="http://www.w3.org/2000/svg">
<path d="M52.6145 60.0323L42.7687 60.0403C41.2135 60.0403 40.011 58.8441 39.9204 57.2889L38.119 26.592C38.0348 25.1623 40.8831 24.4712 41.9379 24.2949C45.7313 23.6595 49.5756 23.6595 53.369 24.2949C54.4318 24.4728 57.2705 25.1559 57.1863 26.592L55.3738 57.4001C55.2896 58.8346 54.0886 60.0308 52.6145 60.0323ZM52.3746 27.3227C53.2896 27.1543 54.0092 27.0129 54.8511 26.6857C53.9107 26.3267 53.0799 26.1773 52.1252 26.0201C49.2467 25.6531 46.3921 25.6484 43.4994 25.9772C42.4287 26.1408 41.4963 26.2917 40.4558 26.6873C41.231 26.9827 41.8886 27.1241 42.6765 27.2814C45.8902 27.7484 49.0911 27.7579 52.373 27.3227H52.3746ZM54.751 35.6895L55.1609 28.6571C50.8051 29.858 44.5065 29.8564 40.146 28.6571L40.5606 35.6943L42.3525 36.3011C45.717 37.4401 49.3309 37.5338 52.6955 36.3885L54.7526 35.6879L54.751 35.6895ZM52.5366 58.1388C53.0465 58.1388 53.3928 57.7607 53.4802 57.2683L54.624 37.7594C50.0553 39.4893 45.3088 39.537 40.6845 37.7388L41.8362 57.3652C41.9776 57.802 42.3032 58.1388 42.7719 58.1388H52.5382H52.5366Z" fill="#717171"/>
<path d="M32.565 45.75L4.96094 45.7516V43.8438H32.5507L32.565 45.75Z" fill="#717171"/>
<path d="M32.565 50.5938L4.96094 50.5953V48.6875H32.5507L32.565 50.5938Z" fill="#717171"/>
<path d="M34.0837 17.1487L31.4579 7.51258L31.4452 3.80333C31.4404 2.23703 30.1902 0.955078 28.5858 0.955078H9.53919C7.93477 0.955078 6.68299 2.24021 6.67823 3.80174L6.66711 7.51258L4.04125 17.1487C3.89034 17.7047 3.8125 18.2321 3.8125 18.8548V57.1736C3.8125 58.7844 5.08016 60.0472 6.68299 60.0472L31.5103 60.0425C33.1259 60.0425 34.3109 58.7049 34.3109 57.1752V18.8532C34.3125 18.2336 34.2347 17.7031 34.0837 17.1487ZM8.58289 3.8081C8.58289 3.27276 8.99432 2.88674 9.54396 2.85974H28.581C29.1307 2.88516 29.5389 3.27276 29.5405 3.8081L29.5485 6.67383L24.535 6.66906C22.8226 4.12581 15.3008 4.12898 13.5884 6.66906L8.57495 6.67383L8.5813 3.8081H8.58289ZM22.8702 9.85727L22.8734 12.3942C21.3484 13.6634 16.7798 13.6491 15.25 12.3942L15.2564 9.85409C17.7853 10.704 20.3397 10.7008 22.8702 9.85727ZM15.2611 7.62219C16.7909 6.35135 21.3579 6.37359 22.8607 7.61107C21.4533 8.90096 16.6908 8.8819 15.2611 7.62219ZM8.34937 8.58008L13.3422 8.5769V11.4379H11.4359V13.3425L13.59 13.3521C14.1158 13.997 14.7607 14.4529 15.5741 14.7134C17.8361 15.4394 20.2857 15.4442 22.5462 14.7134C23.3309 14.4593 23.9695 14.051 24.5064 13.3584L26.6859 13.3409V11.4395H24.7797V8.58325L29.7661 8.57531L32.1076 17.1598H6.01898L8.34937 8.58484V8.58008ZM32.411 57.6184H32.2951C32.1362 57.9313 31.8185 58.1394 31.4484 58.1394L20.0188 58.1426H18.1078L6.67664 58.1394C6.30174 58.1394 5.50906 57.6184 5.50906 57.6184V19.0454H32.411V57.6184Z" fill="#717171"/>
</svg>
