<svg width="81" height="81" viewBox="0 0 81 81" fill="none" xmlns="http://www.w3.org/2000/svg">
<path d="M42.9859 46.2268C42.6147 46.0116 42.0367 46.2964 41.9165 46.598C41.7667 46.9756 41.8933 47.4523 42.2835 47.678L50.0376 52.1626C51.2188 52.846 51.5416 54.3479 50.8855 55.4426C50.2295 56.5374 48.8141 56.9572 47.6245 56.2716L38.4909 50.9982C37.7948 50.5974 37.0565 50.4898 36.2444 50.4244C36.9552 48.9711 36.7844 47.3764 35.8267 46.1846C34.8796 45.0076 33.3398 44.5308 31.762 44.9105C31.6544 43.242 30.5955 41.9469 29.2391 41.4786C27.6634 40.9344 26.0561 41.3731 24.9128 42.7083C24.3011 41.5081 23.2 40.7108 22.0061 40.5357C20.5759 40.3247 19.3609 40.8858 18.4117 41.8836L12.0625 38.2133L20.7805 23.1122C22.5482 24.2302 24.5648 24.7765 26.6341 24.4433C27.9503 24.2323 29.102 23.5911 30.1778 22.8444L32.323 21.3572C33.3566 20.6401 34.7151 20.754 35.6474 21.5555L26.9547 28.5291C25.7228 29.5184 25.8536 31.2418 26.9209 32.2585C29.9458 35.1336 35.1116 32.4167 38.0416 30.4824L62.5588 44.6447C63.757 45.3366 64.0122 46.8469 63.3878 47.9079C62.7065 49.066 61.2594 49.4035 60.0487 48.7032L49.0862 42.3793C48.7466 42.1831 48.1898 42.4025 48.0273 42.6872C47.8649 42.972 47.9134 43.5563 48.2995 43.7799L56.1548 48.3298C57.3213 49.0048 57.606 50.5088 56.9837 51.5656C56.3615 52.6224 54.9145 53.1076 53.7395 52.4283L42.9859 46.2289V46.2268Z" fill="white"/>
<path d="M62.906 42.9728L38.6207 28.956C38.1018 28.6564 37.72 28.7092 37.2644 29.0298C35.1825 30.5 30.43 33.1768 28.1329 31.1835C27.9494 31.0232 27.73 30.6625 27.6984 30.4579C27.6668 30.2532 27.884 29.8335 28.0823 29.6753L37.0809 22.476C41.5823 18.8753 47.1363 20.316 51.5407 23.2185C54.7912 25.3616 58.3054 24.5917 61.4547 22.3389L68.9282 37.8829C66.2388 38.7751 64.2623 40.393 62.9039 42.9707L62.906 42.9728Z" fill="white"/>
<path d="M26.0093 52.8382C25.3554 53.973 23.9886 54.262 22.974 53.6777C21.9593 53.0934 21.5248 51.7772 22.1492 50.6972L26.0705 43.9134C26.6801 42.8587 28.0533 42.6161 28.9983 43.1393C30.0404 43.7151 30.496 45.0588 29.859 46.162L26.0093 52.8403V52.8382Z" fill="white"/>
<path d="M31.2574 55.8027C30.6141 56.9164 29.3484 57.2729 28.2811 56.735C27.2834 56.233 26.7117 54.8598 27.3424 53.7671L30.9874 47.4517C31.6181 46.3569 33.0609 46.1249 34.0355 46.7345C35.0712 47.3841 35.3602 48.7004 34.7273 49.7973L31.2595 55.8027H31.2574Z" fill="white"/>
<path d="M20.8157 49.7798C20.1554 50.9294 18.8075 51.2373 17.8035 50.6868C16.7235 50.0962 16.3164 48.7356 16.9471 47.643L19.4973 43.2259C20.1259 42.1354 21.478 41.8232 22.4842 42.3864C23.4903 42.9496 23.9628 44.3102 23.3364 45.4007L20.8157 49.7819V49.7798Z" fill="white"/>
<path d="M36.4445 58.873C35.7969 59.9909 34.4427 60.2926 33.4049 59.6935C32.3903 59.1113 31.9895 57.7634 32.6286 56.6581L34.6346 53.1924C35.2611 52.1103 36.6006 51.7939 37.6321 52.374C38.6636 52.9541 39.0707 54.3336 38.4231 55.4537L36.4445 58.8688V58.873Z" fill="white"/>
<path d="M42.0622 60.393L38.5859 58.4207L39.7187 56.4548C40.1532 55.7017 40.3515 54.9719 40.4169 53.9805L44.315 56.2333C45.4266 56.8766 45.7262 58.3173 45.1482 59.3847C44.6166 60.3698 43.2308 61.0532 42.0601 60.3888L42.0622 60.393Z" fill="white"/>
</svg>
