<svg width="26" height="26" viewBox="0 0 26 26" fill="none" xmlns="http://www.w3.org/2000/svg">
<g clip-path="url(#clip0_2535_132)">
<path d="M25.196 7.4094V7.78506L22.7903 18.4363C22.7114 18.7843 22.4518 19.0271 22.0768 19.0271L6.20757 19.0291C5.84338 19.0291 5.53921 19.2247 5.35307 19.4735C5.04553 19.8849 4.97134 20.3712 5.19593 20.8136C5.42051 21.256 5.87372 21.4981 6.38966 21.4725L6.81118 21.4516C7.27653 20.5985 8.15261 20.0926 9.09411 20.0846C10.0552 20.0765 10.9508 20.5809 11.433 21.4671L18.3283 21.4692C18.8031 20.62 19.6664 20.092 20.6268 20.0832C21.6054 20.0744 22.4949 20.5978 22.9745 21.4685L24.4305 21.4651C24.8237 21.4644 25.082 21.7012 25.1953 22.0492V22.416C25.0571 22.675 24.8682 22.9428 24.527 22.9448L23.2739 22.9529C23.2361 23.5646 22.9751 24.0596 22.6096 24.5317C22.1962 25.0659 21.571 25.3012 20.9363 25.4375H20.3624C19.7204 25.2972 19.0884 25.051 18.675 24.5074C18.3196 24.0394 18.0714 23.5484 18.0289 22.9495H11.7399C11.696 23.5626 11.4391 24.0616 11.0715 24.5344C10.6588 25.0659 10.0349 25.2999 9.40367 25.4375H8.82973C8.19645 25.3033 7.5726 25.0598 7.16188 24.5351C6.79094 24.061 6.53803 23.5646 6.49217 22.9468C5.59856 22.994 4.73934 22.6676 4.22408 21.9662C3.64812 21.225 3.47479 20.3395 3.74389 19.4412C4.04873 18.4234 4.93695 17.7166 6.01535 17.5966L3.71624 1.9506L1.36452 1.94521C1.15342 1.94521 0.959861 1.80762 0.861394 1.65655C0.693462 1.39892 0.634113 1.14129 0.771696 0.864778C0.877581 0.650985 1.11565 0.464844 1.41173 0.464844L4.33334 0.466193C4.66785 0.466193 4.98281 0.710335 5.03339 1.05362L5.89261 6.87458L7.66905 6.87796C7.77088 8.81625 8.48038 10.4632 9.78472 11.8431C12.6254 14.8476 17.5339 14.8524 20.3725 11.8458C21.6782 10.4625 22.387 8.82637 22.4895 6.88065L24.3806 6.87054C24.7772 6.86851 25.0456 7.06072 25.1947 7.4094H25.196Z" fill="#D66500"/>
<path d="M18.0592 11.8437C16.2807 12.941 13.904 12.9376 12.1418 11.8613C11.0957 11.2226 10.2709 10.3903 9.74688 9.31328C8.96117 7.69736 8.88901 5.90878 9.55197 4.2362C9.95191 3.22726 10.6081 2.3957 11.47 1.70509C13.5392 0.0480218 16.6179 0.0459984 18.6891 1.70036C19.555 2.39232 20.214 3.22591 20.6139 4.2362C21.2769 5.9135 21.206 7.70343 20.4156 9.3234C19.899 10.3816 19.1032 11.1996 18.0592 11.8437ZM12.1249 6.88467C12.6746 7.47682 13.2869 7.97859 13.869 8.53567C14.1489 8.80341 14.5791 8.80948 14.8624 8.54376L16.7373 6.78891L17.9634 5.62215C18.2521 5.34698 18.2291 4.89377 17.9607 4.62063C17.7125 4.36839 17.2714 4.31983 16.9767 4.5923L14.6951 6.70325C14.5859 6.80442 14.5103 6.93053 14.3741 7.03574C14.2676 6.94942 14.1596 6.81858 14.0585 6.72416L13.1696 5.89192C12.8863 5.62687 12.4594 5.65587 12.1883 5.91418C11.9772 6.11583 11.8551 6.59467 12.1249 6.88535V6.88467Z" fill="#D66500"/>
</g>
<defs>
<clipPath id="clip0_2535_132">
<rect width="25.8979" height="25.8979" fill="white"/>
</clipPath>
</defs>
</svg>
