<svg width="42" height="42" viewBox="0 0 42 42" fill="none" xmlns="http://www.w3.org/2000/svg">
<path d="M40.8668 12.0143V12.6235L36.9654 29.8971C36.8375 30.4615 36.4164 30.8552 35.8083 30.8552L10.0723 30.8585C9.48169 30.8585 8.98841 31.1757 8.68653 31.5793C8.18778 32.2465 8.06747 33.0351 8.43169 33.7526C8.79591 34.4701 9.53091 34.8627 10.3676 34.8212L11.0512 34.7873C11.8059 33.4037 13.2267 32.5834 14.7536 32.5702C16.3122 32.5571 17.7647 33.3752 18.5467 34.8124L29.7292 34.8157C30.4992 33.4387 31.8992 32.5823 33.4567 32.568C35.0437 32.5538 36.4864 33.4026 37.264 34.8146L39.6254 34.8091C40.2631 34.808 40.682 35.192 40.8658 35.7563V36.3513C40.6415 36.7713 40.3353 37.2055 39.7818 37.2088L37.7497 37.222C37.6884 38.214 37.2651 39.0168 36.6723 39.7824C36.0018 40.6487 34.9879 41.0304 33.9587 41.2513H33.0279C31.9867 41.0238 30.9618 40.6246 30.2914 39.743C29.715 38.984 29.3125 38.1877 29.2436 37.2165H19.0443C18.9732 38.2107 18.5565 39.0201 17.9604 39.7868C17.2911 40.6487 16.2793 41.0282 15.2556 41.2513H14.3248C13.2978 41.0337 12.2861 40.6388 11.62 39.7879C11.0184 39.019 10.6083 38.214 10.5339 37.2121C9.08466 37.2887 7.69122 36.7593 6.85559 35.6218C5.92153 34.4198 5.64044 32.9837 6.07684 31.5268C6.57122 29.8763 8.01169 28.7301 9.76059 28.5354L6.032 3.16148L2.21809 3.15273C1.87575 3.15273 1.56184 2.92961 1.40216 2.68461C1.12981 2.2668 1.03356 1.84898 1.25669 1.40055C1.42841 1.05383 1.8145 0.751953 2.29466 0.751953L7.03278 0.754141C7.57528 0.754141 8.08606 1.15008 8.16809 1.7068L9.56153 11.147L12.4425 11.1524C12.6076 14.2959 13.7583 16.9668 15.8736 19.2046C20.4804 24.0773 28.4408 24.0849 33.0443 19.209C35.1618 16.9657 36.3114 14.3123 36.4776 11.1568L39.5445 11.1404C40.1876 11.1371 40.6229 11.4488 40.8647 12.0143H40.8668Z" fill="white"/>
<path d="M29.2926 19.2081C26.4084 20.9876 22.554 20.9822 19.6961 19.2365C17.9997 18.2007 16.662 16.8511 15.8122 15.1043C14.538 12.4837 14.4209 9.58309 15.4961 6.87059C16.1447 5.23434 17.2089 3.88574 18.6067 2.76574C21.9623 0.0784006 26.9553 0.075119 30.3142 2.75809C31.7186 3.88028 32.7872 5.23215 33.4358 6.87059C34.5109 9.59074 34.3961 12.4936 33.1142 15.1207C32.2764 16.8368 30.9858 18.1636 29.2926 19.2081ZM19.6687 11.1657C20.5601 12.1261 21.5533 12.9398 22.4972 13.8432C22.9511 14.2775 23.6489 14.2873 24.1083 13.8564L27.1489 11.0104L29.1373 9.11824C29.6055 8.67199 29.5683 7.93699 29.1329 7.49403C28.7304 7.08496 28.0151 7.00621 27.5372 7.44809L23.837 10.8715C23.6598 11.0356 23.5373 11.2401 23.3164 11.4107C23.1436 11.2707 22.9686 11.0586 22.8045 10.9054L21.363 9.55574C20.9036 9.1259 20.2112 9.17293 19.7715 9.59184C19.4292 9.91887 19.2312 10.6954 19.6687 11.1668V11.1657Z" fill="white"/>
</svg>
