<svg width="38" height="38" viewBox="0 0 38 38" fill="none" xmlns="http://www.w3.org/2000/svg">
<path d="M19.9701 0C26.8032 0 32.2855 5.73266 33.0653 12.6261C33.5432 16.8506 32.0311 21.0969 29.0466 24.1082C26.0343 27.1472 21.7998 28.6771 17.5506 28.2318C9.72495 27.4115 4.05463 20.3518 4.94328 12.5826C5.73 5.69703 11.242 0.581875 18.0503 0H19.9701ZM19.0132 20.1034L23.4683 21.9015C23.8404 22.0519 24.259 21.9678 24.5489 21.7501C24.8389 21.5323 25.0101 21.1583 24.9823 20.7456L24.6558 15.9936L27.7176 12.3352C27.9877 12.0126 28.0748 11.6157 27.9293 11.21C27.8294 10.9309 27.5483 10.6153 27.1782 10.5222L22.4965 9.3476L19.9444 5.27745C19.7405 4.95287 19.3833 4.76583 19.0379 4.75594C18.6926 4.74604 18.2987 4.89745 18.0968 5.21906L15.5061 9.34661L10.8452 10.5173C10.4434 10.6182 10.1524 10.9418 10.0565 11.2555C9.93276 11.6593 10.0307 12.0343 10.291 12.3451L13.3488 16.0006L13.0193 20.7486C12.9906 21.1632 13.1578 21.5373 13.4666 21.7629C13.7318 21.9569 14.1424 22.0548 14.4987 21.9123L19.0132 20.1044V20.1034Z" fill="#013049"/>
<path d="M13.3171 37.8034H12.8213C12.4839 37.657 12.2444 37.4413 12.0089 37.1276L8.96494 33.0604L3.59051 33.0554C3.18577 33.0554 2.82754 32.8239 2.65733 32.5448C2.45942 32.2192 2.40697 31.8264 2.58608 31.4691L6.16838 24.3164C9.02332 27.8472 12.9638 29.9966 17.4269 30.4548L14.1593 37.0078C13.9604 37.4076 13.7021 37.6431 13.3171 37.8015V37.8034Z" fill="#013049"/>
<path d="M25.1995 37.8045H24.7037C24.3079 37.653 24.0456 37.4165 23.8438 37.0108L20.5781 30.4578C25.0936 29.9937 29.0282 27.7998 31.8346 24.3145L35.4021 31.4424C35.598 31.8343 35.5436 32.2529 35.317 32.5903C35.127 32.8724 34.7648 33.0594 34.364 33.0594L29.041 33.0614L25.7121 37.4957L25.1995 37.8054V37.8045Z" fill="#013049"/>
<path d="M19.4824 17.9065C19.1806 17.7847 18.8352 17.7847 18.5294 17.9065L15.3568 19.1781L15.5943 15.6561C15.5775 15.4048 15.4944 15.1534 15.3598 14.9427L13.1016 12.2411L16.4642 11.392C16.7581 11.3079 17.0055 11.1219 17.1737 10.8705L19.0054 7.94531L20.8421 10.8735C21.0024 11.1149 21.2389 11.2931 21.513 11.3841L24.9113 12.2391L22.653 14.9427C22.4947 15.1673 22.4126 15.4424 22.4215 15.7264L22.651 19.1801L19.4824 17.9055V17.9065Z" fill="#013049"/>
</svg>
