<svg width="32" height="31" viewBox="0 0 32 31" fill="none" xmlns="http://www.w3.org/2000/svg">
<path d="M22.6729 12.2902C20.8896 14.2898 17.7604 14.2963 15.9996 12.3184C14.1971 14.3124 11.0696 14.2753 9.3321 12.3128C8.3596 13.3404 7.0421 13.912 5.6371 13.7683C3.2046 13.5197 1.48626 11.4199 1.67876 9.07391C1.65793 8.25128 1.67376 7.48919 1.9446 6.70289L4.08043 1.63471C4.40626 0.685338 5.28043 0.0742188 6.32626 0.0742188H25.6813C26.6979 0.0742188 27.5863 0.658698 27.9071 1.59031L30.0771 6.75294C30.3488 7.54167 30.3413 8.31021 30.3313 9.13445C30.4871 11.4215 28.8363 13.4575 26.4754 13.757C25.0471 13.9378 23.6546 13.3816 22.6738 12.2902H22.6729Z" fill="#013049"/>
<path d="M21.6609 20.2459C21.6601 19.169 20.7659 18.3229 19.6843 18.3221L12.3743 18.3173C11.2743 18.3116 10.3384 19.1294 10.3368 20.2185L10.3293 30.8949L5.37677 30.8925C4.0626 30.8925 3.04427 29.8882 3.02344 28.624L3.0251 15.0243C3.8901 15.4433 4.7076 15.7227 5.62177 15.7323C6.94344 15.78 8.19927 15.5031 9.33177 14.8266C11.3726 16.0149 13.9001 16.0464 15.9659 14.8266C18.0168 16.0101 20.5751 16.0617 22.6609 14.8145C23.7868 15.4692 25.0393 15.7525 26.3784 15.7081C27.3109 15.7033 28.1659 15.411 28.9984 14.9888V28.5626C29.0084 29.9504 27.8893 30.907 26.4934 30.9038L21.6676 30.8925L21.6618 20.2443L21.6609 20.2459Z" fill="#013049"/>
<path d="M19.6709 30.8927L12.3359 30.8952V20.5901C12.3509 20.3931 12.4868 20.2664 12.6943 20.2559H19.3126C19.5201 20.2664 19.6551 20.3939 19.6718 20.5901V30.8927H19.6709Z" fill="#013049"/>
</svg>
