<svg width="25" height="25" viewBox="0 0 25 25" fill="none" xmlns="http://www.w3.org/2000/svg">
<g clip-path="url(#clip0_2535_135)">
<path d="M17.2967 9.68279C15.9359 11.2579 13.5482 11.263 12.2046 9.70504C10.8291 11.2757 8.44265 11.2464 7.11683 9.70059C6.37475 10.5101 5.36941 10.9603 4.29731 10.8471C2.44115 10.6512 1.12995 8.9973 1.27684 7.14941C1.26095 6.50145 1.27303 5.90117 1.47969 5.28181L3.10947 1.28972C3.3581 0.541913 4.02515 0.0605469 4.82318 0.0605469H19.5923C20.3681 0.0605469 21.0459 0.520929 21.2907 1.25474L22.9466 5.32124C23.1539 5.9425 23.1482 6.54787 23.1405 7.19711C23.2595 8.99857 21.9998 10.6023 20.1983 10.8382C19.1084 10.9806 18.0458 10.5425 17.2974 9.68279H17.2967Z" fill="#D66500"/>
<path d="M16.5341 15.9462C16.5335 15.0979 15.8512 14.4315 15.0258 14.4309L9.44779 14.4271C8.60842 14.4226 7.89432 15.0668 7.89304 15.9246L7.88732 24.3342L4.10824 24.3323C3.10545 24.3323 2.3284 23.5413 2.3125 22.5455L2.31377 11.8333C2.97382 12.1633 3.59763 12.3833 4.2952 12.391C5.30371 12.4285 6.26199 12.2104 7.12616 11.6775C8.68345 12.6135 10.6121 12.6383 12.1885 11.6775C13.7534 12.6097 15.7056 12.6504 17.2972 11.668C18.1563 12.1837 19.112 12.4069 20.1339 12.3719C20.8454 12.3681 21.4978 12.1379 22.1331 11.8053V22.4971C22.1407 23.5902 21.2867 24.3437 20.2216 24.3412L16.5392 24.3323L16.5347 15.9449L16.5341 15.9462Z" fill="#D66500"/>
<path d="M15.0111 24.3335L9.41406 24.3354V16.2183C9.42551 16.0632 9.52916 15.9633 9.68749 15.9551H14.7377C14.896 15.9633 14.9991 16.0638 15.0118 16.2183V24.3335H15.0111Z" fill="#D66500"/>
</g>
<defs>
<clipPath id="clip0_2535_135">
<rect width="24.4181" height="24.4181" fill="white"/>
</clipPath>
</defs>
</svg>
