<svg width="29" height="29" viewBox="0 0 29 29" fill="none" xmlns="http://www.w3.org/2000/svg">
<g clip-path="url(#clip0_2535_128)">
<path d="M27.4749 27.9497H0.656856C0.369088 27.9497 0.165527 27.7322 0.165527 27.473L0.164062 25.0735C0.164062 24.8106 0.382268 24.6012 0.637818 24.5997L1.6007 24.5939V17.4158L0.63855 17.4099C0.371285 17.4084 0.175778 17.1902 0.167724 16.9618C0.158937 16.707 0.331744 16.4551 0.655391 16.4551H27.4522C27.7575 16.4551 27.9223 16.6791 27.9391 16.9054C27.9582 17.1639 27.7583 17.4077 27.469 17.4099L26.5076 17.4165V24.5946L27.4705 24.6004C27.7253 24.6019 27.945 24.8113 27.9443 25.0749L27.9421 27.473C27.9421 27.7212 27.7824 27.9131 27.4742 27.9511L27.4749 27.9497ZM14.5341 24.5887V19.8058H18.3659V24.5939H19.3237V19.805H23.6343V24.5939H24.5928L24.5906 19.3276C24.5906 19.0618 24.3856 18.8473 24.1015 18.8473H4.00756C3.72272 18.8473 3.51769 19.0618 3.51769 19.3269L3.51623 24.5931H4.47545V19.805H8.78684V24.5939H9.74534V19.805H13.5778V24.5946L14.5363 24.5873L14.5341 24.5887Z" fill="#D66500"/>
<path d="M27.9428 6.36974V11.1864H0.164062V6.39976C0.164062 6.11932 0.380071 5.9326 0.641479 5.91722H4.47399V4.47253C3.22553 4.58529 2.17038 3.68098 2.08764 2.4728C2.00343 1.25216 2.96046 0.169922 4.24333 0.169922H23.8657C25.0827 0.169922 26.009 1.14233 26.0265 2.2956C26.0441 3.48108 25.0959 4.47179 23.8796 4.47838L23.1555 4.48204L23.1569 5.91722H27.4683C27.6865 5.91795 27.9443 6.09369 27.945 6.36974H27.9428ZM20.2778 5.91722V4.48058H7.34947V5.91795H20.2778V5.91722Z" fill="#D66500"/>
<path d="M15.9798 14.0742C15.4644 14.6724 14.8127 15.0093 14.0848 15.0137C13.3599 15.0181 12.6702 14.7208 12.1547 14.0779C11.6465 14.6483 10.9955 15.0129 10.2516 15.0151C9.50324 15.0173 8.81494 14.6966 8.30824 14.0662C7.81398 14.6812 7.14106 15.0041 6.42127 15.0137C5.70149 15.0232 4.98317 14.6929 4.47646 14.0676C3.7823 14.9346 2.69567 15.2363 1.69471 14.8526C0.763305 14.496 0.118939 13.5624 0.166535 12.5021L0.182644 12.1426H27.9343C28.0866 13.3544 27.4774 14.4989 26.327 14.8848C25.329 15.2194 24.3083 14.8987 23.6353 14.0684C23.1418 14.679 22.4689 15.0056 21.7491 15.0137C21.0015 15.0225 20.3117 14.6937 19.8036 14.0669C19.3093 14.679 18.6364 15.0063 17.9173 15.0129C17.188 15.0195 16.5093 14.7208 15.9791 14.0742H15.9798Z" fill="#D66500"/>
</g>
<defs>
<clipPath id="clip0_2535_128">
<rect width="28.1178" height="28.1178" fill="white"/>
</clipPath>
</defs>
</svg>
