<svg width="51" height="51" viewBox="0 0 51 51" fill="none" xmlns="http://www.w3.org/2000/svg">
<path d="M1.36142 31.039L3.1172 30.9965C2.4611 29.6259 2.28181 28.1968 2.56204 26.7106C3.02688 24.2403 4.91282 22.9839 7.31806 22.5443C5.92087 18.0725 8.14681 15.8094 11.912 13.9248C13.2946 13.2328 14.6945 12.7945 16.1541 12.3058C16.765 12.1012 17.4676 11.6218 17.5685 10.9551C17.7584 9.69335 16.935 8.53656 15.8353 8.01859C13.8166 7.06898 12.5708 8.20187 12.0302 6.79937C11.8377 6.29867 12.0209 5.71827 12.5124 5.36101C17.6323 1.63827 24.1255 0.514681 30.0808 2.94781C31.7556 3.63179 33.3081 4.46585 34.716 5.57085C36.0188 6.59351 36.8423 8.00398 37.1265 9.60968C40.4442 9.90718 43.4298 11.6112 43.8641 15.148C44.1297 16.6899 43.876 18.2119 43.115 19.5666C46.2268 20.3383 48.4461 22.2468 48.6148 25.5857C48.7144 27.5566 48.3399 29.424 47.1485 31.0549L49.5644 31.0802C50.2364 31.0868 50.757 31.5848 50.7663 32.2237C50.7743 32.7536 50.3599 33.4774 49.6401 33.4774L1.47298 33.4801C0.742509 33.4801 0.275009 32.913 0.236493 32.3127C0.199306 31.719 0.654853 31.0549 1.36142 31.0376V31.039ZM33.2311 25.1142C32.4595 25.2616 31.8087 24.668 31.7649 23.9614C31.721 23.2548 32.2098 22.7475 32.9509 22.608C34.6017 22.2946 36.1795 21.8271 37.7016 21.1259C40.0696 20.0355 41.9954 18.285 41.4881 15.4401C41.0604 13.0349 39.0337 12.2726 36.8144 12.0853C35.5062 15.3684 31.8578 16.9648 28.5481 17.1614C27.8243 17.2039 27.2466 16.6248 27.2452 15.9953C27.2452 15.3113 27.7154 14.7601 28.4299 14.703C30.7143 14.5171 33.429 13.606 34.4158 11.3588C35.1184 9.75843 34.3122 8.20718 33.0159 7.28148C28.1284 3.79249 22.1373 2.89734 16.6202 5.79663C18.392 6.56562 19.5408 7.96812 19.9631 9.77968C20.2726 11.1051 19.9791 12.4226 19.0202 13.4055C18.3017 14.1718 17.3906 14.626 16.3772 14.9315C14.5524 15.4813 12.8205 16.1759 11.24 17.2504C10.5945 17.6887 9.84946 18.2199 9.55727 18.953C8.60899 21.3357 10.0792 23.8525 12.5017 24.5139C13.2163 24.7091 13.717 25.2311 13.5695 25.9443C13.4221 26.6575 12.7501 27.0666 12.0435 26.8647C10.8097 26.5114 9.74587 25.8951 8.82415 24.988C7.19321 24.8738 5.28602 25.3533 4.90485 27.1688C4.5861 28.6829 5.10407 30.2116 6.22235 31.2435H43.6157C45.3569 30.1691 46.1936 28.2937 46.2122 26.2976C46.2401 23.2402 43.9132 22.0954 41.1999 21.9493C38.8995 23.6705 36.0627 24.5737 33.2298 25.1169L33.2311 25.1142Z" fill="#717171"/>
<path d="M46.5103 37.581L42.8686 45.3041C42.004 47.1369 40.8445 48.5978 38.7899 49.0202C37.6902 49.2459 36.6357 49.3389 35.4669 49.3389H15.6792C13.258 49.3389 10.7559 49.1224 9.2989 47.105C8.92968 46.5937 8.58038 46.0863 8.30679 45.5046L4.44726 37.3194C4.16038 36.7098 4.56015 36.0789 5.09406 35.8226C5.55359 35.6021 6.3239 35.6539 6.61077 36.2582L10.6868 44.8724C11.1716 45.8964 11.9737 46.5605 13.0854 46.7026C13.9872 46.8181 14.8279 46.8752 15.7801 46.8752H35.2717C36.1894 46.8752 36.9969 46.8141 37.8655 46.7052C39.0024 46.5618 39.8259 45.8871 40.3239 44.8379L44.3242 36.4202C44.623 35.792 45.4332 35.6539 45.9472 35.9089C46.5462 36.2051 46.8357 36.8944 46.513 37.5797L46.5103 37.581Z" fill="#717171"/>
<path d="M28.3956 25.6133C26.5044 25.7594 24.7128 25.8019 22.864 25.8165C22.1362 25.8232 21.6222 25.3052 21.5877 24.6438C21.5505 23.9333 22.1123 23.4007 22.864 23.4033C24.6742 23.41 26.4274 23.3276 28.231 23.2413C28.8512 23.2121 29.316 23.7832 29.4037 24.2892C29.5033 24.8616 29.0996 25.5589 28.3956 25.6133Z" fill="#717171"/>
</svg>
